<svg xmlns="http://www.w3.org/2000/svg" width="192" height="192" viewBox="0 0 50.8 50.8"><path d="M0 0h50.8v50.8H0z"/><path fill="#58a6ff" d="M18.028 20.078H9.733l-1.31 3.749H3.092l7.62-20.574h6.325l7.62 20.574h-5.332zm-6.972-3.817h5.636L13.88 8.076zm33.292-12.36v4.354q-1.695-.758-3.308-1.144t-3.045-.386q-1.902 0-2.811.524t-.91 1.626q0 .827.607 1.295.62.455 2.232.786l2.26.454q3.432.69 4.879 2.095t1.446 3.996q0 3.404-2.025 5.072-2.012 1.653-6.16 1.653-1.957 0-3.927-.372t-3.942-1.102v-4.479q1.971 1.047 3.804 1.585 1.846.523 3.555.523 1.737 0 2.66-.578t.923-1.654q0-.965-.634-1.488-.62-.524-2.494-.937l-2.053-.455q-3.087-.661-4.52-2.108-1.42-1.447-1.42-3.9 0-3.073 1.985-4.727 1.984-1.654 5.705-1.654 1.695 0 3.486.262 1.792.248 3.707.758z" aria-label="AS"/><g aria-label="N1" style="white-space:pre"><path fill="#58a6ff" d="M4.716 27.345h5.925l7.483 14.111v-14.11h5.03v20.573h-5.926L9.745 33.81v14.11h-5.03z"/><path fill="#fffe58" d="M31.696 44.254h4.686V30.955l-4.81.993v-3.61l4.782-.993h5.044v16.908h4.685v3.666H31.696z"/></g></svg>