<?xml version="1.0" encoding="UTF-8"?>
<svg width="192" height="192" version="1.1" viewBox="0 0 50.8 50.8" xmlns="http://www.w3.org/2000/svg"><rect width="50.8" height="50.8" stroke-width=".25275"/><g transform="translate(0 .23698)"><g transform="translate(0 -.30431)"><path transform="matrix(.26458 0 0 .26458 .72192 -3.1337)" d="m65.411 87.986h-31.354l-4.9479 14.167h-20.156l28.802-77.761h23.906l28.802 77.761h-20.156zm-26.354-14.427h21.302l-10.625-30.938zm125.83-46.719v16.458q-6.4063-2.8646-12.5-4.3229t-11.51-1.4583q-7.1875 0-10.625 1.9792t-3.4375 6.1459q0 3.125 2.2917 4.8958 2.3438 1.7188 8.4375 2.9688l8.5417 1.7188q12.969 2.6042 18.438 7.9167 5.4688 5.3125 5.4688 15.104 0 12.865-7.6563 19.167-7.6042 6.25-23.281 6.25-7.3958 0-14.844-1.4062-7.4479-1.4063-14.896-4.1667v-16.927q7.4479 3.9583 14.375 5.9896 6.9792 1.9792 13.438 1.9792 6.5625 0 10.052-2.1875t3.4896-6.25q0-3.6458-2.3958-5.625-2.3438-1.9792-9.4271-3.5417l-7.7604-1.7188q-11.667-2.5-17.083-7.9688-5.3646-5.4688-5.3646-14.74 0-11.615 7.5-17.865 7.5-6.25 21.563-6.25 6.4063 0 13.177 0.98959 6.7708 0.9375 14.01 2.8646z" fill="#58a6ff" aria-label="AS"/><g transform="matrix(.26458 0 0 .26458 2.807 20.959)" style="white-space:pre" aria-label="N1"><path d="m7.2136 24.392h22.396l28.281 53.334v-53.334h19.01v77.761h-22.396l-28.281-53.334v53.334h-19.01z" fill="#58a6ff"/><path d="m109.19 88.298h17.708v-50.261l-18.177 3.75v-13.646l18.073-3.75h19.063v63.906h17.708v13.854h-54.375z" fill="#fffe58"/></g></g></g></svg>
